# xmcd
#
# Track frame offsets: 
#        150
#        11199
#        20677
#        31768
#        41000
#        52075
#        62029
#        73998
#        87910
#        101064
#        114662
#        127094
#        138866
#        151493
#        163153
#        175910
#        189443
#        198548
#        209777
#        220587
#        233343
#        246897
#        257125
#        271675
#        283377
#        294200
#        306184
#        315874
#        326122
#        336190
#        346763
#
# Disc length: 4796 seconds
#
# Revision: 0
# Processed by: cddbd v1.5.1PL2 Copyright (c) Steve Scherf et al.
# Submitted via: ExactAudioCopy v0.95b4
#
DISCID=d812ba1f
DTITLE=James "Wee Willie" Wayne - From Texas To New Orleans
DYEAR=1900
DGENRE=New Orleans
TTITLE0=Travelin' Mood
TTITLE1=I Remember
TTITLE2=Junco Partner
TTITLE3=Kinfolks
TTITLE4=Ageable Woman
TTITLE5=Bad Morning mr. Blues
TTITLE6=Gotta Good Girl
TTITLE7=Gypsy Blues
TTITLE8=Hard To Handle
TTITLE9=I got to be Careful
TTITLE10=Please Be Mine
TTITLE11=Woman, I'm Tired
TTITLE12=A Two Faced Man
TTITLE13=I'm In Love With You
TTITLE14=Sweet Little Woman
TTITLE15=Bull Corn
TTITLE16=Lonely Room
TTITLE17=Tend To Your Business
TTITLE18=Good News
TTITLE19=Love Me Blues
TTITLE20=Millionaire Blues
TTITLE21=I'm Going To Tell Your Mother
TTITLE22=Bad Weather Blues
TTITLE23=Vacant Pillow Blues
TTITLE24=Money Blues
TTITLE25=Crying In Vain
TTITLE26=Let's Have A Ball
TTITLE27=Junko's Return
TTITLE28=Please Baby Please
TTITLE29=Trying To Find A Girl
TTITLE30=When Night Falls
EXTD=
EXTT0=
EXTT1=
EXTT2=
EXTT3=
EXTT4=
EXTT5=
EXTT6=
EXTT7=
EXTT8=
EXTT9=
EXTT10=
EXTT11=
EXTT12=
EXTT13=
EXTT14=
EXTT15=
EXTT16=
EXTT17=
EXTT18=
EXTT19=
EXTT20=
EXTT21=
EXTT22=
EXTT23=
EXTT24=
EXTT25=
EXTT26=
EXTT27=
EXTT28=
EXTT29=
EXTT30=
PLAYORDER=
